<?xml version="1.0" encoding="utf-8"?>
<!-- Generator: Adobe Illustrator 16.0.0, SVG Export Plug-In . SVG Version: 6.00 Build 0)  -->
<!DOCTYPE svg PUBLIC "-//W3C//DTD SVG 1.1//EN" "http://www.w3.org/Graphics/SVG/1.1/DTD/svg11.dtd">
<svg version="1.1" id="Layer_1" xmlns="http://www.w3.org/2000/svg" xmlns:xlink="http://www.w3.org/1999/xlink" x="0px" y="0px"
	 width="182.525px" height="181.276px" viewBox="0 0 182.525 181.276" enable-background="new 0 0 182.525 181.276"
	 xml:space="preserve">
<g>
	<path fill-rule="evenodd" clip-rule="evenodd" d="M44.078,104.659c1.181,0.037,1.792-0.246,1.945-1.595
		c0.563-5,1.925-9.813,3.844-14.455c0.424-1.026,0.399-1.585-0.629-2.164c-4.618-2.603-9.223-5.231-13.782-7.937
		c-1.364-0.81-1.724-0.336-1.864,0.976c-0.385,3.585-0.896,7.158-0.714,10.956c-0.224,3.243,0.238,6.626,0.632,10.006
		c0.488,4.206,0.537,4.2,4.861,4.2C40.272,104.646,42.176,104.599,44.078,104.659z"/>
	<path fill-rule="evenodd" clip-rule="evenodd" d="M46.699,123.642c-1.308-6.172-1.292-6.175-8.329-5.565
		c2.523,6.4,5.916,11.888,9.889,17.044c0.365,0.474,0.741,1.049,1.448,0.632c0.831-0.491,0.467-1.144,0.181-1.815
		C48.476,130.614,47.447,127.168,46.699,123.642z"/>
	<path fill-rule="evenodd" clip-rule="evenodd" d="M114.48,52.012c4.578,0.53,9.037,1.756,13.273,3.599
		c1.502,0.652,2.055,0.203,2.771-1.046c5.219-9.111,10.494-18.19,15.793-27.256c0.68-1.162,0.867-1.774-0.705-2.362
		c-10.184-3.816-20.641-6.3-31.52-7.005c-1.875-0.121-2.08,0.59-2.051,2.166c0.092,4.807,0.115,24.041-0.002,28.847
		C111.996,50.83,112.311,51.76,114.48,52.012z"/>
	<path fill-rule="evenodd" clip-rule="evenodd" d="M80.324,54.625c0.745,1.312,1.392,1.549,2.825,0.934
		c4.245-1.823,8.707-3.034,13.286-3.596c1.922-0.235,2.475-0.776,2.419-2.677c-0.138-4.706-0.044-9.036-0.044-14.036
		c0.01,0,0.02,0,0.031,0c0-5,0.002-9.911-0.003-14.82c-0.001-1.2,0.251-2.497-1.798-2.229C86.473,19.585,76.597,22.857,67.49,28.45
		c-1.372,0.843-1.445,1.474-0.678,2.781C71.369,38.999,75.872,46.797,80.324,54.625z"/>
	<path fill-rule="evenodd" clip-rule="evenodd" d="M39.183,65.437c5.498,3.072,10.94,6.244,16.403,9.382
		c0.425,0.245,0.843,0.504,1.407,0.841c0.433-0.498,0.828-0.914,1.179-1.363c2.988-3.789,6.299-7.274,10.187-10.133
		c1.474-1.084,1.158-1.927,0.418-3.188c-4.143-7.077-8.265-14.167-12.298-21.308c-0.85-1.505-1.337-1.828-2.68-0.437
		c-6.607,6.848-11.804,14.594-15.504,23.368C37.706,63.993,37.838,64.685,39.183,65.437z"/>
	<path fill-rule="evenodd" clip-rule="evenodd" d="M108.375,106.233c-9.35-3.868-13.363-6.663-13.363-12.25
		c0-4.299,3.038-9.243,11.314-9.243c6.877,0,11.129,2.364,13.385,3.654l2.378-7.093c-3.117-1.826-6.589-3.546-14.589-3.761V66.25h-5
		v11.72c-11,1.612-16.451,8.383-16.451,17.303c0,9.35,6.542,14.293,17.504,18.591c7.951,3.225,12.117,6.879,12.117,12.789
		c0,6.125-5.209,10.531-12.838,10.531c-6.02,0-11.709-2.042-15.579-4.623l-2.784,7.202c3.76,2.686,10.031,4.62,16.031,4.729v10.758
		h7v-11.082c11-1.827,17.256-9.779,17.256-18.267C124.756,116.335,119.443,110.748,108.375,106.233z"/>
	<path fill-rule="evenodd" clip-rule="evenodd" d="M138.664,66.044l27.105-47.061C150.309,8.552,131.352,2.388,110.848,2.388
		c-51.991,0-94.141,39.511-94.141,88.25c0,48.741,42.148,88.251,94.139,88.251c3.605,0,6.654-0.208,10.654-0.577v-12.415
		c0,0,31.724-10.621,37.753-42.979C166.161,85.851,138.664,66.044,138.664,66.044z M107.557,34.25c-0.004,0-0.008,0-0.012,0
		c0-6,0.033-12.523-0.023-18.936c-0.014-1.529,0.172-2.069,2.08-2.025c14.805,0.342,28.918,3.688,42.512,9.453
		c1.313,0.557,1.35,1.06,0.693,2.187c-6.898,11.842-13.781,23.694-20.586,35.59c-0.832,1.456-1.578,1.346-2.824,0.719
		c-6.156-3.096-12.713-4.82-19.564-5.273c-1.854-0.122-2.342-0.991-2.313-2.782C107.619,46.974,107.557,41.25,107.557,34.25z
		 M61.656,26.907c11.852-8.086,24.929-12.506,39.219-13.502c1.832-0.127,2.447,0.297,2.414,2.23
		c-0.119,6.405-0.045,12.813-0.045,19.221c-0.004,6.207-0.063,12.415,0.035,18.62c0.029,1.762-0.381,2.366-2.275,2.476
		c-6.857,0.399-13.403,2.188-19.552,5.264c-1.466,0.732-2.12,0.623-2.975-0.884C72.71,50.157,66.858,40.031,60.945,29.941
		C60.089,28.482,60.298,27.833,61.656,26.907z M32.793,64.495C37.39,51.89,44.697,41.18,54.743,32.297
		c1.228-1.085,1.804-1.441,2.799,0.318c5.677,10.021,11.474,19.975,17.262,29.932c0.607,1.045,1.039,1.73-0.345,2.647
		c-6.087,4.029-11.141,9.134-15.226,15.191c-0.261,0.389-0.602,0.724-0.911,1.092c-0.576-0.304-1.027-0.522-1.458-0.772
		c-7.634-4.403-15.251-8.838-22.916-13.188C32.591,66.746,32.196,66.132,32.793,64.495z M29.399,103.092
		c-1.573-10.107-1.357-20.166,0.934-30.174c0.394-1.722,0.735-2.173,2.426-1.172c7.236,4.286,14.52,8.497,21.845,12.633
		c1.377,0.777,1.482,1.389,0.817,2.745c-3.029,6.173-4.915,12.696-5.273,19.582c-0.106,2.045-0.957,2.471-2.785,2.358
		c-2.398-0.146-4.812-0.036-7.219-0.036c-1.204,0.005-2.408,0.005-3.611,0.005C30.398,109.033,30.326,109.044,29.399,103.092z
		 M43.427,136.104c-4.662-6.33-8.289-13.204-10.886-20.639c-0.574-1.645-0.35-2.132,1.424-2.04
		c2.299,0.119,13.373-0.818,15.386,0.511c1.935,1.275,0.897,5.208,1.502,7.934c1.024,4.612,2.373,9.108,4.479,13.334
		c0.746,1.495,0.557,2.136-0.905,3.017C47.916,142.144,47.93,142.217,43.427,136.104z M75.117,159.463
		c-0.821,1.484-1.58,1.04-2.636,0.535c-7.804-3.742-14.845-8.556-21.038-14.693c0.276-0.396,0.313-0.51,0.391-0.553
		c2.076-1.189,4.149-3.286,6.234-3.296c2.034-0.011,2.835,3.164,4.269,4.861c3.442,4.071,7.275,7.668,11.647,10.708
		C74.803,157.596,76.014,157.843,75.117,159.463z M79.777,163.031c-0.566-0.198-1.548-0.311-0.947-1.382
		c0.345-0.613,0.669-1.315,1.583-0.83c4.568,2.436,9.493,3.898,14.464,5.363C89.629,166.069,84.658,164.734,79.777,163.031z
		 M105.434,159.056c-26.504-0.045-47.946-21.405-47.904-47.719c0.044-26.599,21.412-47.929,48.029-47.943
		c26.182-0.015,47.707,21.494,47.678,47.64C153.207,137.812,132.016,159.102,105.434,159.056z"/>
</g>
</svg>
