<?xml version="1.0" encoding="utf-8"?>
<!-- Generator: Adobe Illustrator 16.0.0, SVG Export Plug-In . SVG Version: 6.00 Build 0)  -->
<!DOCTYPE svg PUBLIC "-//W3C//DTD SVG 1.1//EN" "http://www.w3.org/Graphics/SVG/1.1/DTD/svg11.dtd">
<svg version="1.1" id="Layer_1" xmlns="http://www.w3.org/2000/svg" xmlns:xlink="http://www.w3.org/1999/xlink" x="0px" y="0px"
	 width="641.097px" height="181.275px" viewBox="0 0 641.097 181.275" enable-background="new 0 0 641.097 181.275"
	 xml:space="preserve">
<g>
	<path fill="#FFFFFF" d="M100.482,52.01c4.578,0.531,9.037,1.757,13.272,3.6c1.501,0.652,2.055,0.203,2.771-1.046
		c5.219-9.11,10.494-18.19,15.793-27.256c0.68-1.162,0.867-1.773-0.705-2.362c-10.184-3.816-20.641-6.3-31.521-7.005
		c-1.875-0.121-2.079,0.591-2.051,2.166c0.092,4.808,0.115,24.041,0,28.847C97.998,50.829,98.312,51.759,100.482,52.01z"/>
	<path fill="#FFFFFF" d="M32.699,123.642c-1.308-6.172-1.293-6.176-8.329-5.565c2.523,6.399,5.916,11.888,9.889,17.044
		c0.365,0.475,0.741,1.049,1.448,0.632c0.83-0.49,0.467-1.144,0.182-1.814C34.476,130.615,33.448,127.168,32.699,123.642z"/>
	<path fill="#FFFFFF" d="M25.183,65.436c5.498,3.071,10.939,6.244,16.402,9.382c0.425,0.245,0.844,0.504,1.407,0.842
		c0.432-0.498,0.827-0.914,1.179-1.363c2.988-3.789,6.3-7.274,10.188-10.133c1.474-1.084,1.158-1.928,0.418-3.188
		c-4.143-7.078-8.265-14.167-12.298-21.309c-0.851-1.505-1.337-1.829-2.681-0.438c-6.607,6.848-11.804,14.595-15.504,23.368
		C23.706,63.993,23.838,64.684,25.183,65.436z"/>
	<path fill="#FFFFFF" d="M30.077,104.659c1.181,0.036,1.793-0.246,1.945-1.596c0.563-5,1.925-9.813,3.844-14.455
		c0.424-1.025,0.4-1.585-0.629-2.164c-4.618-2.604-9.223-5.231-13.782-7.938c-1.364-0.809-1.723-0.336-1.864,0.977
		c-0.385,3.585-0.896,7.159-0.715,10.956c-0.224,3.243,0.238,6.626,0.632,10.006c0.488,4.206,0.537,4.2,4.861,4.2
		C26.272,104.646,28.175,104.598,30.077,104.659z"/>
	<path fill="#FFFFFF" d="M124.664,66.044l27.105-47.062C136.309,8.552,117.352,2.388,96.848,2.388
		c-51.991,0-94.142,39.511-94.142,88.25c0,48.74,42.148,88.251,94.14,88.251c3.604,0,6.653-0.208,10.653-0.577v-12.416
		c0,0,31.725-10.621,37.753-42.979C152.161,85.851,124.664,66.044,124.664,66.044z M93.556,34.249c-0.005,0-0.009,0-0.013,0
		c0-6,0.034-12.523-0.022-18.937c-0.015-1.528,0.172-2.068,2.08-2.024c14.805,0.342,28.918,3.688,42.512,9.453
		c1.312,0.557,1.349,1.06,0.693,2.188c-6.898,11.842-13.781,23.693-20.586,35.59c-0.832,1.456-1.578,1.347-2.824,0.719
		c-6.156-3.095-12.712-4.819-19.564-5.272c-1.853-0.122-2.342-0.99-2.313-2.782C93.619,46.973,93.556,41.249,93.556,34.249z
		 M47.656,26.907C59.507,18.82,72.585,14.4,86.875,13.404c1.832-0.127,2.447,0.298,2.414,2.229
		c-0.119,6.406-0.045,12.814-0.045,19.222c-0.004,6.207-0.063,12.415,0.035,18.62c0.03,1.762-0.38,2.366-2.275,2.477
		c-6.856,0.399-13.402,2.188-19.552,5.264c-1.467,0.732-2.121,0.623-2.975-0.884C58.71,50.157,52.859,40.031,46.945,29.941
		C46.089,28.482,46.299,27.833,47.656,26.907z M18.793,64.495C23.39,51.89,30.697,41.18,40.743,32.297
		c1.229-1.085,1.803-1.441,2.8,0.317c5.678,10.021,11.474,19.975,17.263,29.932c0.606,1.044,1.037,1.729-0.346,2.646
		c-6.088,4.029-11.141,9.134-15.226,15.19c-0.262,0.39-0.603,0.725-0.911,1.093c-0.576-0.304-1.027-0.521-1.458-0.771
		c-7.634-4.403-15.251-8.837-22.916-13.188C18.59,66.746,18.195,66.132,18.793,64.495z M15.399,103.092
		c-1.572-10.107-1.357-20.166,0.934-30.174c0.394-1.723,0.735-2.173,2.426-1.172c7.236,4.286,14.521,8.497,21.846,12.633
		c1.377,0.777,1.481,1.39,0.816,2.745c-3.028,6.173-4.915,12.695-5.272,19.582c-0.106,2.045-0.956,2.47-2.785,2.357
		c-2.399-0.146-4.813-0.036-7.219-0.036c-1.203,0.006-2.407,0.006-3.611,0.006C16.398,109.033,16.325,109.044,15.399,103.092z
		 M29.427,136.104c-4.661-6.331-8.288-13.205-10.886-20.641c-0.574-1.645-0.35-2.132,1.424-2.04
		c2.3,0.119,13.372-0.817,15.387,0.512c1.934,1.275,0.896,5.208,1.502,7.935c1.023,4.611,2.373,9.107,4.479,13.334
		c0.745,1.496,0.558,2.136-0.905,3.018C33.916,142.144,33.93,142.217,29.427,136.104z M61.117,159.463
		c-0.821,1.483-1.58,1.04-2.636,0.535c-7.805-3.742-14.846-8.556-21.038-14.692c0.275-0.396,0.313-0.511,0.391-0.554
		c2.076-1.189,4.15-3.286,6.234-3.296c2.034-0.012,2.836,3.164,4.269,4.86c3.441,4.071,7.275,7.668,11.647,10.708
		C60.802,157.596,62.013,157.843,61.117,159.463z M65.777,163.031c-0.566-0.198-1.549-0.312-0.947-1.383
		c0.345-0.612,0.67-1.314,1.583-0.83c4.568,2.436,9.493,3.897,14.464,5.363C75.629,166.069,70.658,164.734,65.777,163.031z
		 M91.434,159.056c-26.504-0.045-47.946-21.406-47.904-47.72c0.044-26.599,21.411-47.928,48.029-47.942
		c26.181-0.016,47.707,21.494,47.678,47.641C139.207,137.812,118.016,159.102,91.434,159.056z"/>
	<path fill="#FFFFFF" d="M66.325,54.625c0.745,1.313,1.391,1.549,2.825,0.935c4.244-1.824,8.707-3.034,13.286-3.597
		c1.921-0.234,2.474-0.775,2.42-2.677c-0.139-4.706-0.044-9.036-0.044-14.036c0.01,0,0.019,0,0.03,0c0-5,0.003-9.911-0.003-14.819
		c-0.001-1.201,0.251-2.498-1.798-2.229C72.474,19.585,62.597,22.856,53.49,28.45c-1.372,0.843-1.445,1.473-0.678,2.78
		C57.369,38.999,61.872,46.797,66.325,54.625z"/>
	<path fill="#FFFFFF" d="M94.375,106.234c-9.349-3.867-13.362-6.663-13.362-12.25c0-4.299,3.037-9.242,11.313-9.242
		c6.877,0,11.129,2.363,13.385,3.653l2.378-7.094c-3.116-1.825-6.589-3.546-14.589-3.761V66.25h-5V77.97
		c-11,1.612-16.451,8.383-16.451,17.303c0,9.351,6.542,14.293,17.505,18.592c7.95,3.225,12.116,6.879,12.116,12.788
		c0,6.125-5.209,10.531-12.838,10.531c-6.019,0-11.709-2.042-15.579-4.623l-2.784,7.202c3.761,2.686,10.031,4.619,16.031,4.729
		v10.758h7v-11.082c11-1.827,17.256-9.778,17.256-18.267C110.756,116.336,105.443,110.749,94.375,106.234z"/>
</g>
<g>
	<path fill="#FFFFFF" d="M217.478,105.946c-0.376,18.444,12.924,24.091,29.235,24.091c9.411,0,23.715-5.145,23.715-18.193
		c0-10.162-10.163-14.179-18.444-16.187l-19.95-4.893c-10.54-2.637-20.201-7.654-20.201-21.582c0-8.783,5.646-25.221,30.866-25.221
		c17.691,0,33.25,9.536,33.125,27.855h-8.532C266.79,58.14,255.497,51.24,242.824,51.24c-11.669,0-22.459,4.517-22.459,17.817
		c0,8.405,6.273,11.92,13.551,13.676l21.832,5.395c12.673,3.389,23.213,8.909,23.213,23.589c0,6.148-2.51,25.598-34.255,25.598
		c-21.204,0-36.763-9.536-35.76-31.368H217.478z"/>
	<path fill="#FFFFFF" d="M293.139,45.844h8.532v89.589h-8.532V45.844z"/>
	<path fill="#FFFFFF" d="M324.382,105.946c-0.377,18.444,12.924,24.091,29.234,24.091c9.411,0,23.715-5.145,23.715-18.193
		c0-10.162-10.162-14.179-18.443-16.187l-19.95-4.893c-10.54-2.637-20.201-7.654-20.201-21.582c0-8.783,5.646-25.221,30.866-25.221
		c17.691,0,33.25,9.536,33.125,27.855h-8.532C373.693,58.14,362.4,51.24,349.727,51.24c-11.669,0-22.459,4.517-22.459,17.817
		c0,8.405,6.272,11.92,13.551,13.676l21.832,5.395c12.673,3.389,23.214,8.909,23.214,23.589c0,6.148-2.511,25.598-34.256,25.598
		c-21.204,0-36.763-9.536-35.76-31.368H324.382z"/>
	<path fill="#FFFFFF" d="M464.914,72.947c-3.012-13.802-14.43-21.707-27.48-21.707c-23.715,0-33.752,19.825-33.752,39.398
		s10.037,39.397,33.752,39.397c16.564,0,27.104-12.798,28.734-28.732h8.531c-2.385,21.957-16.313,36.011-37.266,36.011
		c-28.23,0-42.285-22.208-42.285-46.676s14.055-46.677,42.285-46.677c16.938,0,33.752,10.163,36.012,28.984L464.914,72.947
		L464.914,72.947z"/>
	<path fill="#FFFFFF" d="M487.751,45.844h61.857v7.277h-53.326v32.372h49.938v7.277h-49.938v35.384h53.953v7.277h-62.484V45.844
		L487.751,45.844z"/>
	<path fill="#FFFFFF" d="M627.654,72.947c-3.012-13.802-14.43-21.707-27.479-21.707c-23.715,0-33.754,19.825-33.754,39.398
		s10.039,39.397,33.754,39.397c16.563,0,27.102-12.798,28.732-28.732h8.531c-2.385,21.957-16.311,36.011-37.266,36.011
		c-28.23,0-42.285-22.208-42.285-46.676s14.055-46.677,42.285-46.677c16.939,0,33.752,10.163,36.012,28.984L627.654,72.947
		L627.654,72.947z"/>
</g>
</svg>
