<?xml version="1.0" encoding="UTF-8"?>
<!DOCTYPE svg PUBLIC "-//W3C//DTD SVG 1.1//EN" "http://www.w3.org/Graphics/SVG/1.1/DTD/svg11.dtd">
<!-- Creator: CorelDRAW 2017 -->
<svg xmlns="http://www.w3.org/2000/svg" xml:space="preserve" width="6.2895mm" height="6.9584mm" version="1.1" style="shape-rendering:geometricPrecision; text-rendering:geometricPrecision; image-rendering:optimizeQuality; fill-rule:evenodd; clip-rule:evenodd"
viewBox="0 0 89 98"
 xmlns:xlink="http://www.w3.org/1999/xlink">
 <defs>
  <style type="text/css">
   <![CDATA[
    .fil0 {fill:white;fill-rule:nonzero;fill-opacity:0.501961}
   ]]>
  </style>
 </defs>
 <g id="Camada_x0020_1">
  <metadata id="CorelCorpID_0Corel-Layer"/>
  <g id="_2704686854336">
   <g>
    <path class="fil0" d="M18 2c1,-1 2,-2 3,-2 12,0 24,0 36,0 3,0 5,2 7,4 1,2 1,4 1,6 4,-1 9,2 9,7 0,6 0,12 0,17 0,2 -2,4 -3,6 0,-8 0,-15 0,-23 0,-3 -2,-5 -5,-4 -12,0 -23,0 -35,0 0,4 0,8 0,12 0,4 -4,7 -7,7 -4,0 -7,0 -11,0 0,20 0,39 0,59 0,2 1,3 3,4 1,1 3,0 4,0 16,0 31,0 47,0 2,0 4,-2 4,-5 0,-6 0,-12 0,-18 1,-1 2,-3 3,-4 0,7 0,15 0,22 0,3 -2,5 -5,6 -2,1 -3,0 -5,0 -16,0 -31,0 -47,0 -3,0 -5,-1 -7,-4 -1,-2 -1,-4 -1,-6 -2,0 -3,0 -5,-1 -3,-1 -4,-4 -4,-7 0,-20 0,-40 0,-60 6,-6 12,-12 18,-19zm3 1l0 0c0,4 0,8 0,12 0,4 -4,8 -8,8 -4,0 -7,0 -11,0 0,20 0,39 0,59 0,1 0,3 1,4 1,1 3,1 5,1 0,-11 0,-23 0,-34 -1,0 -2,0 -3,0 0,-1 0,-2 0,-3 1,0 2,0 3,0 0,-2 0,-3 0,-5 -1,0 -2,0 -3,0 0,-1 0,-2 0,-3 1,0 2,0 3,0 0,-2 0,-3 0,-5 -1,0 -2,0 -3,0 0,-1 0,-2 0,-3 1,0 2,0 2,0 1,-2 3,-4 5,-6 5,-5 10,-10 15,-15 11,0 22,0 33,0 0,-2 0,-5 -1,-6 -2,-2 -4,-1 -6,-1 -11,0 -22,0 -33,0zm-16 16l0 0c3,0 7,0 10,0 2,-1 3,-2 3,-4 0,-3 0,-7 0,-10 -5,5 -9,9 -13,14zm9 10l0 0c3,0 6,0 9,0 2,0 4,-2 4,-4 0,-3 0,-6 0,-10 -5,4 -9,10 -13,14z"/>
   </g>
   <path class="fil0" d="M35 25c10,0 19,0 29,0 0,1 0,2 0,3 -10,0 -19,0 -29,0 0,-1 0,-2 0,-3z"/>
   <path class="fil0" d="M78 34c1,-1 1,-4 4,-4 2,1 4,2 7,4 1,0 2,1 1,2 -1,2 -2,3 -3,5 -3,-2 -7,-4 -10,-6 -3,5 -5,9 -8,14 0,1 -1,2 -2,1 0,-1 0,-1 0,-2 3,-5 6,-10 9,-15 1,0 1,0 2,1z"/>
   <path class="fil0" d="M35 33c10,0 19,0 29,0 0,1 0,2 0,3 -10,0 -19,0 -29,0 0,-1 0,-2 0,-3z"/>
   <path class="fil0" d="M77 37c3,2 6,3 9,5 -7,12 -14,24 -21,36 -3,-2 -6,-4 -9,-5 4,-6 7,-13 11,-19 1,-1 2,-2 3,-3 3,-5 5,-9 8,-13z"/>
   <path class="fil0" d="M16 42c16,0 32,0 48,0 0,1 0,2 0,3 -16,0 -32,0 -48,0 0,-1 0,-2 0,-3z"/>
   <path class="fil0" d="M16 50c16,0 32,0 48,0 0,1 0,2 0,3 -16,0 -32,0 -48,0 0,-1 0,-2 0,-3z"/>
   <path class="fil0" d="M16 58c16,0 31,0 46,0 -1,1 -1,2 -2,3 -15,0 -30,0 -45,0 0,-1 0,-2 0,-3z"/>
   <path class="fil0" d="M55 73c3,2 6,4 9,5 -3,2 -6,4 -9,6 0,-4 0,-7 0,-11z"/>
   <path class="fil0" d="M22 84c1,-3 4,-7 8,-7 3,1 3,5 3,7 2,-2 3,-4 5,-5 2,-1 4,2 5,3 2,-2 3,-4 6,-4 2,0 4,1 5,3 0,0 -1,1 -1,1 -2,0 -3,-2 -5,-1 -2,1 -3,2 -4,4 1,2 1,5 -2,7 -1,-1 -3,-1 -3,-3 0,-2 1,-3 2,-4 -1,-1 -1,-2 -2,-2 -2,2 -4,5 -6,7 -1,0 -2,-1 -2,-2 0,-2 -1,-5 -1,-7 -3,1 -5,4 -5,7 -2,1 -3,-1 -2,-2z"/>
  </g>
 </g>
</svg>
